HIERARCHY
ROOT Hips
{
  OFFSET 0.000000 0.000000 0.000000
  CHANNELS 6 Xposition Yposition Zposition Xrotation Yrotation Zrotation
  JOINT Spine
  {
    OFFSET 0.000000 10.000000 0.000000
    CHANNELS 3 Xrotation Yrotation Zrotation
    JOINT Chest
    {
      OFFSET 0.000000 15.000000 0.000000
      CHANNELS 3 Xrotation Yrotation Zrotation
      JOINT Neck
      {
        OFFSET 0.000000 15.000000 0.000000
        CHANNELS 3 Xrotation Yrotation Zrotation
        JOINT Head
        {
          OFFSET 0.000000 10.000000 0.000000
          CHANNELS 3 Xrotation Yrotation Zrotation
          End Site
          {
            OFFSET 0.0 5.0 2.0
          }
        }
      }
      JOINT LeftShoulder
      {
        OFFSET 20.000000 5.000000 0.000000
        CHANNELS 3 Xrotation Yrotation Zrotation
        JOINT LeftArm
        {
          OFFSET 15.000000 0.000000 0.000000
          CHANNELS 3 Xrotation Yrotation Zrotation
          JOINT LeftForeArm
          {
            OFFSET 25.000000 0.000000 0.000000
            CHANNELS 3 Xrotation Yrotation Zrotation
            JOINT LeftHand
            {
              OFFSET 20.000000 0.000000 0.000000
              CHANNELS 3 Xrotation Yrotation Zrotation
              End Site
              {
                OFFSET -3.0 0.0 2.0
              }
            }
          }
        }
      }
      JOINT RightShoulder
      {
        OFFSET -20.000000 5.000000 0.000000
        CHANNELS 3 Xrotation Yrotation Zrotation
        JOINT RightArm
        {
          OFFSET -15.000000 0.000000 0.000000
          CHANNELS 3 Xrotation Yrotation Zrotation
          JOINT RightForeArm
          {
            OFFSET -25.000000 0.000000 0.000000
            CHANNELS 3 Xrotation Yrotation Zrotation
            JOINT RightHand
            {
              OFFSET -20.000000 0.000000 0.000000
              CHANNELS 3 Xrotation Yrotation Zrotation
              End Site
              {
                OFFSET 3.0 0.0 2.0
              }
            }
          }
        }
      }
    }
  }
  JOINT LeftUpLeg
  {
    OFFSET 10.000000 -10.000000 0.000000
    CHANNELS 3 Xrotation Yrotation Zrotation
    JOINT LeftLeg
    {
      OFFSET 0.000000 -45.000000 0.000000
      CHANNELS 3 Xrotation Yrotation Zrotation
      JOINT LeftFoot
      {
        OFFSET 0.000000 -45.000000 0.000000
        CHANNELS 3 Xrotation Yrotation Zrotation
        JOINT LeftToeBase
        {
          OFFSET 0.000000 0.000000 10.000000
          CHANNELS 3 Xrotation Yrotation Zrotation
          End Site
          {
            OFFSET 0.0 -1.0 3.0
          }
        }
      }
    }
  }
  JOINT RightUpLeg
  {
    OFFSET -10.000000 -10.000000 0.000000
    CHANNELS 3 Xrotation Yrotation Zrotation
    JOINT RightLeg
    {
      OFFSET 0.000000 -45.000000 0.000000
      CHANNELS 3 Xrotation Yrotation Zrotation
      JOINT RightFoot
      {
        OFFSET 0.000000 -45.000000 0.000000
        CHANNELS 3 Xrotation Yrotation Zrotation
        JOINT RightToeBase
        {
          OFFSET 0.000000 0.000000 10.000000
          CHANNELS 3 Xrotation Yrotation Zrotation
          End Site
          {
            OFFSET 0.0 -1.0 3.0
          }
        }
      }
    }
  }
}
MOTION
Frames: 17
Frame Time: 0.033333
-9.471418 0.426234 -46.459061 -88.886696 -7.862998 -8.019278 -88.775799 7.245838 7.457423 -88.775799 7.245838 7.457423 -68.732036 19.474198 28.228245 68.899405 -8.075197 11.928666 -60.833929 38.945114 -117.838549 2.615104 1.142757 131.958175 -5.242926 -4.037587 104.851108 -5.242926 -4.037587 104.851108 -12.984358 -19.608460 66.557733 31.966802 -54.811425 -57.835027 35.142280 -25.654379 -108.605106 35.142280 -25.654379 -108.605106 2.735883 0.483240 -19.966483 -12.088528 -0.123844 -1.199753 95.225228 -77.358151 -83.836161 0.823727 -78.010570 -0.686445 -10.878850 1.550203 16.160520 -19.572493 1.520926 8.822932 31.760695 -71.314461 -23.057740 -104.444453 -83.694402 98.265956
-9.252603 0.429550 -49.838300 -88.867387 -7.901275 -8.063412 -88.326151 9.354402 9.656058 -88.326151 9.354402 9.656058 -67.600683 19.730231 29.140674 70.088115 -6.653366 9.523642 -63.005208 39.679760 -119.012989 4.183880 1.812570 132.216110 -4.301226 -3.310163 105.017184 -4.301226 -3.310163 105.017184 -12.096560 -18.945190 64.723521 32.388194 -55.050764 -58.245177 34.648105 -24.825911 -109.573437 34.648105 -24.825911 -109.573437 2.687774 0.463213 -19.534318 -11.845126 -0.082999 -0.767791 99.329987 -76.881986 -87.468539 3.018638 -77.851817 -2.431632 -10.889049 1.570302 16.369251 -19.321533 1.672088 9.823901 33.414746 -70.408247 -23.903980 -104.936165 -84.456641 99.534784
-8.361288 0.433188 -51.537071 -88.653012 -8.520303 -8.735522 -88.169067 9.957455 10.290210 -88.169067 9.957455 10.290210 -67.219022 19.568412 29.097169 70.359292 -6.272010 8.902826 -64.946701 40.621407 -119.639648 6.955273 3.033482 132.371509 -2.965065 -2.287489 104.862399 -2.965065 -2.287489 104.862399 -11.564023 -18.606845 63.410357 33.089997 -55.460309 -58.912625 34.910611 -24.524523 -110.661663 34.910611 -24.524523 -110.661663 2.870329 0.487228 -19.257072 -10.782010 -0.040390 -0.295147 92.340001 -75.955075 -80.096699 5.325247 -77.152751 -4.223406 -10.533770 1.531622 16.507784 -19.011879 1.808181 10.784870 35.279428 -69.870248 -25.044249 -103.007014 -85.298956 98.425581
-6.994100 0.437160 -52.396758 -88.175184 -9.794149 -10.138244 -88.315292 9.539230 9.835470 -88.315292 9.539230 9.835470 -67.420706 19.083093 28.296263 70.075667 -6.631434 9.464872 -66.568486 41.631703 -119.851662 9.350433 4.091864 132.706372 -2.012661 -1.552604 104.669168 -2.012661 -1.552604 104.669168 -11.303636 -18.446842 62.718232 33.817054 -55.879463 -59.613621 35.571400 -24.534012 -111.715723 35.571400 -24.534012 -111.715723 3.360714 0.576964 -19.346431 -9.126352 0.010193 0.359150 75.892266 -74.908307 -63.462332 7.242927 -76.309657 -5.686806 -10.022500 1.465667 16.614386 -18.609761 1.938731 11.832518 37.705751 -69.710432 -26.764492 -95.038432 -86.076708 91.241173
-5.842918 0.441919 -53.384343 -87.118802 -11.944963 -12.659260 -88.617734 8.660987 8.882689 -88.617734 8.660987 8.882689 -67.850952 18.512763 27.254444 69.819583 -7.310452 10.469717 -67.328319 42.448629 -119.502923 10.524952 4.597047 132.873720 -1.529476 -1.187895 104.351706 -1.529476 -1.187895 104.351706 -11.314368 -18.527995 62.539050 34.365510 -56.245830 -60.094899 36.204931 -24.627136 -112.530086 36.204931 -24.627136 -112.530086 4.381223 0.792867 -20.023192 -7.177582 0.054373 1.306351 62.793172 -74.006099 -50.236731 8.147488 -75.639332 -6.343678 -9.297064 1.367853 16.723215 -18.246945 2.095237 13.039710 40.344514 -69.761992 -28.746009 -81.826290 -86.553605 78.638486
-5.030170 0.447531 -54.870043 -85.693915 -14.415553 -15.686461 -88.896497 7.821218 7.976031 -88.896497 7.821218 7.976031 -68.260280 18.039902 26.367435 69.807116 -8.036119 11.492980 -67.214968 43.045241 -118.609609 11.223969 4.867896 133.109808 -1.405927 -1.093495 104.464672 -1.405927 -1.093495 104.464672 -11.510875 -18.725028 62.859907 34.301764 -56.371487 -59.871116 36.499177 -24.725277 -112.776018 36.499177 -24.725277 -112.776018 5.773115 1.123262 -21.270668 -5.464520 0.095976 2.615641 56.393035 -73.473325 -43.628569 8.969407 -75.580180 -6.984576 -8.448384 1.249929 16.797502 -18.029254 2.281872 14.325613 43.612674 -69.969953 -31.332018 -63.965237 -86.494604 61.286251
-5.043730 0.453348 -56.822791 -84.168800 -16.762389 -18.673831 -89.044895 7.310317 7.433865 -89.044895 7.310317 7.433865 -68.427030 17.834746 25.989674 70.110386 -8.641280 12.282391 -66.333683 43.386749 -117.313437 12.905310 5.532990 133.546198 -1.004374 -0.782972 104.994065 -1.004374 -0.782972 104.994065 -11.850535 -19.025706 63.511199 33.562174 -56.280961 -58.813699 36.483049 -24.880687 -112.404241 36.483049 -24.880687 -112.404241 7.345542 1.541523 -22.946018 -4.387003 0.134785 4.092679 58.428569 -73.179840 -45.106588 10.738962 -76.162070 -8.465903 -7.644149 1.128030 16.742722 -18.081830 2.479729 15.469876 47.309967 -70.322011 -34.373206 -44.506178 -85.947526 42.296159
-6.803059 0.458767 -59.660446 -82.684994 -18.774677 -21.364533 -89.160723 6.843185 6.945661 -89.160723 6.843185 6.945661 -68.621641 17.749010 25.778059 70.447919 -9.538462 13.468681 -64.885398 43.548557 -115.669941 12.305602 5.242990 134.903853 -0.782365 -0.581360 106.744961 -0.782365 -0.581360 106.744961 -12.299118 -19.454389 64.255195 32.376661 -56.856287 -56.454188 37.696011 -25.795485 -112.248805 37.696011 -25.795485 -112.248805 8.955059 2.014261 -24.792372 -3.517664 0.150338 5.143304 60.840582 -73.047824 -47.018416 12.510692 -76.902177 -9.983033 -7.176950 1.040664 16.479377 -18.719831 2.712243 16.305355 57.754516 -70.808978 -43.682896 -25.776545 -84.718052 24.236369
-10.591792 0.462548 -63.358080 -80.978924 -20.539299 -24.051542 -89.299325 6.214185 6.293888 -89.299325 6.214185 6.293888 -69.015381 17.641204 25.449309 70.483522 -10.998052 15.534863 -63.004847 43.632635 -113.645168 8.455792 3.772961 137.731078 -0.637866 -0.425383 110.463474 -0.637866 -0.425383 110.463474 -12.878698 -20.057031 65.055351 30.460851 -57.938038 -52.499194 39.537969 -27.242684 -111.979073 39.537969 -27.242684 -111.979073 10.599224 2.511098 -26.318317 -2.101303 0.119693 5.364675 61.326119 -72.993335 -47.387646 12.813753 -77.370831 -10.294882 -7.842351 1.077906 15.890390 -19.994105 2.998969 16.846099 69.929534 -71.213798 -54.487420 -11.524813 -82.647724 10.885449
-14.730321 0.466436 -67.914341 -77.985542 -22.444629 -27.990016 -89.307572 6.096723 6.178222 -89.307572 6.096723 6.178222 -69.346404 17.528470 25.139746 70.569009 -12.676019 17.850509 -61.842977 44.090531 -111.838199 1.461268 1.292697 141.949000 -1.169739 -0.663442 115.341437 -1.169739 -0.663442 115.341437 -13.295367 -20.575370 65.396255 28.292246 -59.120775 -48.046180 42.027962 -28.882607 -112.251324 42.027962 -28.882607 -112.251324 12.394581 2.941102 -26.700420 -0.120854 0.049094 4.889161 59.083306 -72.879881 -45.511772 11.283762 -77.309311 -9.094964 -10.053543 1.279024 15.014973 -21.903192 3.498111 17.717441 82.672969 -70.133251 -64.392284 4.413427 -79.983275 -2.844825
-16.796446 0.471239 -72.203975 -72.636668 -24.850226 -34.488694 -89.231423 6.357149 6.454354 -89.231423 6.357149 6.454354 -69.664270 17.170496 24.494400 70.313230 -14.505701 20.521724 -61.342650 44.534223 -110.736909 -6.772776 -1.242431 147.236236 -2.163040 -1.072170 121.680588 -2.163040 -1.072170 121.680588 -13.585841 -21.029042 65.385659 26.649179 -60.171357 -44.529977 44.434160 -30.381207 -112.710410 44.434160 -30.381207 -112.710410 14.161927 3.130975 -25.236330 2.206196 -0.019676 3.656379 53.090792 -72.447920 -40.463449 6.851511 -76.097948 -5.624524 -13.164273 1.577529 14.078285 -24.093021 4.235515 19.297681 89.242116 -67.179061 -67.180326 21.712672 -77.120618 -16.639870
-15.833917 0.476623 -75.745772 -65.471216 -27.191599 -42.748090 -89.195900 6.454372 6.559646 -89.195900 6.454372 6.559646 -70.239662 16.197627 22.920713 69.061193 -16.473236 23.944306 -61.304359 43.915057 -111.576964 -18.725860 -3.913183 152.712101 -2.942273 -1.383417 127.733797 -2.942273 -1.383417 127.733797 -13.736242 -21.716819 64.322879 25.526395 -60.359028 -42.543382 45.877372 -31.509361 -112.609646 45.877372 -31.509361 -112.609646 15.516681 3.020386 -22.220416 4.004983 -0.062345 2.292637 46.315144 -71.521541 -34.543864 2.270567 -73.988537 -2.008199 -16.126732 1.864471 13.303702 -26.046785 5.082706 21.423155 89.384676 -62.582606 -62.918544 40.747572 -74.290006 -31.177468
-12.192586 0.481366 -78.595918 -57.801052 -28.786415 -51.147553 -89.204471 6.432483 6.535625 -89.204471 6.432483 6.535625 -70.856948 14.924593 20.942161 67.926040 -17.887018 26.514748 -63.139381 42.711971 -114.964595 -32.741342 -6.056567 157.353809 -3.067610 -1.330206 133.525570 -3.067610 -1.330206 133.525570 -13.876671 -22.809433 62.404529 24.637845 -59.751202 -41.607731 46.753580 -32.592913 -111.870354 46.753580 -32.592913 -111.870354 16.473162 2.724795 -18.751534 5.013528 -0.067036 1.421714 41.892034 -69.252540 -29.729232 1.340870 -70.916182 -0.892905 -18.557565 2.044635 12.556561 -27.540842 5.965572 23.814620 82.294730 -56.205857 -51.134888 59.424272 -70.978813 -44.187204
-7.099780 0.483261 -80.354087 -51.021747 -29.333796 -58.173041 -89.301444 6.059126 6.143910 -89.301444 6.059126 6.143910 -71.754657 13.504469 18.680718 67.686527 -18.328304 27.290543 -66.728172 41.471462 -119.933288 -45.519936 -7.935928 160.324956 -0.339629 -0.416834 138.409678 -0.339629 -0.416834 138.409678 -14.403313 -24.735635 60.183041 23.535872 -60.363323 -39.573942 49.185913 -34.237959 -112.060939 49.185913 -34.237959 -112.060939 17.041694 2.383611 -15.800916 4.920950 -0.057869 1.259400 42.561770 -65.779380 -28.035691 6.389549 -67.504446 -3.742691 -19.502394 1.895492 10.982452 -28.843214 6.915268 26.287873 77.087014 -48.547257 -40.543940 74.141740 -66.359202 -52.282069
-1.296351 0.483625 -79.275025 -46.191649 -29.064137 -62.889804 -89.524345 4.937847 4.986482 -89.524345 4.937847 4.986482 -72.875069 11.941991 16.181550 68.160499 -17.983070 26.554092 -71.701127 42.234739 -123.645494 -46.982022 -7.977137 161.764565 6.303133 1.659537 143.101005 6.303133 1.659537 143.101005 -14.626463 -26.394427 57.509717 20.446247 -59.712212 -34.556061 50.801174 -36.446521 -110.384608 50.801174 -36.446521 -110.384608 17.387490 2.148675 -14.014838 3.499974 -0.032267 1.593813 46.214019 -61.324037 -28.021678 14.277468 -63.027967 -8.040915 -17.138538 1.443472 5.724534 -31.431968 8.691652 29.384026 74.272024 -35.422571 -26.857078 80.317877 -54.468532 -47.604216
7.304122 0.478982 -69.946135 -43.503720 -28.682335 -65.417826 -89.621106 2.872552 2.891134 -89.621106 2.872552 2.891134 -73.789176 10.473780 13.962308 68.508721 -17.360964 25.496298 -76.155516 45.197852 -124.199288 -29.997577 -4.756808 161.589724 15.531752 4.524573 145.758352 15.531752 4.524573 145.758352 -13.369517 -25.351610 54.000174 15.576705 -54.916195 -27.258213 49.889757 -38.486590 -105.541051 51.284968 -38.486590 -107.662502 17.184386 1.973992 -12.916165 1.604287 -0.002023 2.805584 49.871604 -56.967903 -28.162269 21.431761 -58.567451 -11.776479 -15.476611 0.619597 -0.730721 -37.346835 10.348727 30.083319 71.788586 -22.666755 -15.996820 77.258881 -40.733392 -36.492079
18.135269 0.467413 -54.098237 -42.469563 -28.503659 -66.377187 -89.466964 -0.183789 -0.216105 -89.466964 -0.183789 -0.216105 -74.581040 8.583608 11.328383 66.942030 -16.975822 25.815333 -78.625222 49.666512 -121.128870 0.284851 1.001361 160.374546 22.368093 6.739374 146.830450 22.368093 6.739374 146.830450 -10.670746 -21.309477 49.819949 10.257959 -46.734289 -19.524996 46.504659 -40.318180 -97.774226 51.309860 -40.318180 -104.897902 16.391048 1.761805 -11.979138 -0.822395 0.062743 3.893705 51.570779 -53.995098 -27.687119 24.586195 -54.804946 -12.978326 -13.298928 -0.391146 -9.485534 -44.357451 11.829811 29.375930 71.642335 -10.937493 -6.721965 71.282133 -27.380846 -23.295171
